<svg width="40" height="40" viewBox="0 0 40 40" fill="none" xmlns="http://www.w3.org/2000/svg">
<g clip-path="url(#clip0_674_3903)">
<path d="M4 1H36C37.6569 1 39 2.34315 39 4V36C39 37.6569 37.6569 39 36 39H4C2.34315 39 1 37.6569 1 36V4C1 2.34315 2.34315 1 4 1Z" fill="white" stroke="white"/>
<mask id="mask0_674_3903" style="mask-type:luminance" maskUnits="userSpaceOnUse" x="10" y="10" width="20" height="20">
<path d="M30 10H10V30H30V10Z" fill="white"/>
</mask>
<g mask="url(#mask0_674_3903)">
<path d="M29.6 20.2274C29.6 19.5183 29.5364 18.8365 29.4182 18.1819H20V22.0501H25.3818C25.15 23.3001 24.4455 24.3592 23.3864 25.0683V27.5774H26.6182C28.5091 25.8365 29.6 23.2728 29.6 20.2274Z" fill="#4285F4"/>
<path d="M19.9999 29.9999C22.6999 29.9999 24.9635 29.1044 26.618 27.5772L23.3862 25.0681C22.4908 25.6681 21.3453 26.0226 19.9999 26.0226C17.3953 26.0226 15.1908 24.2635 14.4044 21.8999H11.0635V24.4908C12.709 27.759 16.0908 29.9999 19.9999 29.9999Z" fill="#34A853"/>
<path d="M14.4045 21.8999C14.2045 21.2999 14.0909 20.659 14.0909 19.9999C14.0909 19.3408 14.2045 18.6999 14.4045 18.0999V15.509H11.0636C10.3864 16.859 10 18.3863 10 19.9999C10 21.6135 10.3864 23.1408 11.0636 24.4908L14.4045 21.8999Z" fill="#FBBC04"/>
<path d="M19.9999 13.9773C21.468 13.9773 22.7862 14.4818 23.8226 15.4727L26.6908 12.6045C24.959 10.9909 22.6953 10 19.9999 10C16.0908 10 12.709 12.2409 11.0635 15.5091L14.4044 18.1C15.1908 15.7364 17.3953 13.9773 19.9999 13.9773Z" fill="#E94235"/>
</g>
</g>
<defs>
<clipPath id="clip0_674_3903">
<rect width="40" height="40" fill="white"/>
</clipPath>
</defs>
</svg>
