<svg width="21" height="21" viewBox="0 0 21 21" fill="none" xmlns="http://www.w3.org/2000/svg">
<path d="M15.7771 14.5399L19.5247 18.2866L18.2866 19.5247L14.5399 15.7771C13.1458 16.8947 11.4118 17.5025 9.625 17.5C5.278 17.5 1.75 13.972 1.75 9.625C1.75 5.278 5.278 1.75 9.625 1.75C13.972 1.75 17.5 5.278 17.5 9.625C17.5025 11.4118 16.8947 13.1458 15.7771 14.5399ZM14.0219 13.8906C15.1321 12.7485 15.7522 11.2178 15.75 9.625C15.75 6.24137 13.0086 3.5 9.625 3.5C6.24137 3.5 3.5 6.24137 3.5 9.625C3.5 13.0086 6.24137 15.75 9.625 15.75C11.2178 15.7522 12.7485 15.1321 13.8906 14.0219L14.0219 13.8906Z" fill="#FE6B0C"/>
</svg>
