<svg width="423" height="119" viewBox="0 0 423 119" fill="none" xmlns="http://www.w3.org/2000/svg">
<path d="M407.672 114.384C407.672 113.505 407.688 112.594 407.721 111.65C407.786 110.706 407.9 109.81 408.062 108.964L408.404 105.351L408.844 102.714C408.941 102.291 408.99 101.9 408.99 101.542C408.99 101.152 408.909 100.745 408.746 100.322C408.616 99.8984 408.242 99.6868 407.623 99.6868C407.363 99.6868 407.102 99.6217 406.842 99.4915C406.614 99.3287 406.402 99.1497 406.207 98.9543C406.012 98.7265 405.849 98.4986 405.719 98.2708C405.621 98.0429 405.572 97.8313 405.572 97.636C405.572 97.2454 405.768 96.8222 406.158 96.3665C406.549 95.9107 407.086 95.6829 407.77 95.6829C409.462 95.8456 410.699 96.3176 411.48 97.0989C412.262 97.8801 412.652 98.8404 412.652 99.9797C413.629 99.2961 414.768 98.7916 416.07 98.4661C417.372 98.108 418.919 97.8639 420.709 97.7336C421.425 97.7336 421.979 97.929 422.369 98.3196C422.76 98.6777 422.955 99.1334 422.955 99.6868C422.955 100.175 422.792 100.615 422.467 101.005C422.141 101.363 421.702 101.591 421.148 101.689C419.651 101.786 418.382 101.949 417.34 102.177C416.298 102.405 415.419 102.779 414.703 103.3C413.987 103.788 413.434 104.456 413.043 105.302C412.652 106.148 412.359 107.239 412.164 108.573L412.018 109.306V111.308C411.985 111.796 411.952 112.301 411.92 112.822C411.92 113.31 411.887 113.814 411.822 114.335L411.676 115.214L411.383 115.995C410.862 116.614 410.26 116.923 409.576 116.923C408.404 116.923 407.77 116.24 407.672 114.872V114.384Z" fill="white"/>
<path d="M391.176 102.909C391.111 102.942 391.078 102.975 391.078 103.007H391.176C391.404 103.007 391.632 103.072 391.859 103.202C392.087 103.3 392.283 103.43 392.445 103.593C392.608 103.723 392.738 103.853 392.836 103.984C392.966 104.081 393.048 104.13 393.08 104.13C393.568 104.358 394.105 104.472 394.691 104.472C395.635 104.472 396.433 104.342 397.084 104.081C397.735 103.788 398.061 103.105 398.061 102.031C397.865 101.379 397.637 100.842 397.377 100.419C397.149 99.996 396.758 99.5891 396.205 99.1985L395.18 98.759H394.496C394.236 98.759 393.894 98.8241 393.471 98.9543C393.048 99.0846 392.624 99.2636 392.201 99.4915C392.071 99.6868 391.941 99.9797 391.811 100.37C391.68 100.728 391.566 101.087 391.469 101.445C391.371 101.803 391.29 102.128 391.225 102.421C391.192 102.714 391.176 102.877 391.176 102.909ZM391.566 107.646L391.42 107.109C391.811 108.834 392.755 110.25 394.252 111.357C394.577 111.617 394.984 111.845 395.473 112.04C395.993 112.236 396.498 112.415 396.986 112.577C397.507 112.74 397.963 112.87 398.354 112.968C398.744 113.033 398.988 113.066 399.086 113.066C399.411 112.773 399.818 112.626 400.307 112.626C400.893 112.691 401.348 112.935 401.674 113.359C401.999 113.749 402.162 114.172 402.162 114.628C402.162 115.344 401.82 115.914 401.137 116.337C400.486 116.793 399.786 117.021 399.037 117.021C397.442 117.021 395.928 116.695 394.496 116.044C393.064 115.426 391.811 114.579 390.736 113.505C389.662 112.431 388.783 111.194 388.1 109.794C387.449 108.394 387.09 106.913 387.025 105.351C387.025 104.277 387.107 103.121 387.27 101.884C387.432 100.647 387.774 99.5077 388.295 98.4661C388.816 97.3918 389.564 96.4967 390.541 95.7805C391.55 95.0644 392.885 94.7063 394.545 94.7063C395.587 94.7063 396.563 94.9342 397.475 95.3899C398.386 95.8131 399.167 96.399 399.818 97.1477C400.502 97.8964 401.039 98.759 401.43 99.7356C401.82 100.68 402.016 101.672 402.016 102.714C402.016 103.658 401.837 104.488 401.479 105.204C401.153 105.92 400.697 106.523 400.111 107.011C399.525 107.467 398.826 107.825 398.012 108.085C397.23 108.313 396.4 108.427 395.521 108.427C395.163 108.427 394.757 108.394 394.301 108.329C393.878 108.264 393.471 108.199 393.08 108.134C392.689 108.036 392.348 107.955 392.055 107.89C391.794 107.792 391.632 107.711 391.566 107.646Z" fill="white"/>
<path d="M380.488 111.454C380.911 110.966 381.27 110.657 381.562 110.527C381.888 110.364 382.23 110.282 382.588 110.282C383.141 110.282 383.548 110.51 383.809 110.966C384.102 111.422 384.248 111.943 384.248 112.529C384.085 113.147 383.809 113.668 383.418 114.091C383.06 114.514 382.62 114.856 382.1 115.116C381.579 115.377 381.009 115.572 380.391 115.702C379.772 115.8 379.154 115.849 378.535 115.849C377.884 115.816 377.233 115.719 376.582 115.556C375.964 115.393 375.378 115.182 374.824 114.921C374.271 114.628 373.783 114.303 373.359 113.945C372.969 113.554 372.692 113.115 372.529 112.626C371.781 110.771 371.276 108.866 371.016 106.913C370.755 104.928 370.625 103.007 370.625 101.152V99.9309L367.598 100.37C366.947 100.305 366.442 100.077 366.084 99.6868C365.758 99.2961 365.596 98.8241 365.596 98.2708C365.596 97.9127 365.726 97.5546 365.986 97.1965C366.247 96.8059 366.637 96.5292 367.158 96.3665L370.723 95.927C370.723 94.7877 370.755 93.6646 370.82 92.5579C370.918 91.4185 370.983 90.2792 371.016 89.1399C371.374 88.0006 372.025 87.3658 372.969 87.2356C373.913 87.2356 374.596 87.8378 375.02 89.0422C374.954 90.3443 374.857 91.9719 374.727 93.925L374.629 95.2922C375.475 95.162 376.354 95.0644 377.266 94.9993C378.177 94.9342 379.137 94.9016 380.146 94.9016C381.318 95.3248 381.904 95.9758 381.904 96.8547C381.839 97.3105 381.66 97.7336 381.367 98.1243C381.074 98.4823 380.635 98.7265 380.049 98.8567C378.128 98.8567 376.289 99.0032 374.531 99.2961V100.566C374.531 101.607 374.564 102.649 374.629 103.691C374.694 104.7 374.775 105.676 374.873 106.62C375.003 107.532 375.166 108.378 375.361 109.159C375.557 109.908 375.785 110.527 376.045 111.015C376.468 111.21 376.956 111.406 377.51 111.601C378.063 111.764 378.6 111.845 379.121 111.845C379.414 111.845 379.805 111.764 380.293 111.601L380.488 111.454Z" fill="white"/>
<path d="M345.242 96.8059C345.372 96.7734 345.519 96.7571 345.682 96.7571C345.844 96.7571 346.04 96.7408 346.268 96.7083H346.316C347.488 96.7083 348.383 96.9036 349.002 97.2942C349.653 97.6523 350.206 98.2708 350.662 99.1497C351.313 98.4986 351.98 98.0429 352.664 97.7825C353.348 97.4895 354.064 97.343 354.812 97.343C356.082 97.343 357.221 97.6685 358.23 98.3196C359.24 98.9381 360.086 99.7681 360.77 100.81C361.486 101.851 362.023 103.072 362.381 104.472C362.771 105.839 362.967 107.255 362.967 108.72C362.967 110.087 362.853 111.422 362.625 112.724C362.43 114.026 362.283 115.263 362.186 116.435C361.827 117.281 361.209 117.802 360.33 117.997H360.135C359.679 117.932 359.223 117.753 358.768 117.46C358.344 117.167 358.133 116.646 358.133 115.898L358.182 115.409C358.214 115.247 358.247 115.116 358.279 115.019C358.312 114.889 358.344 114.775 358.377 114.677L358.67 112.529C358.735 111.943 358.784 111.357 358.816 110.771C358.882 110.185 358.914 109.583 358.914 108.964C358.914 108.313 358.849 107.548 358.719 106.669C358.621 105.79 358.41 104.96 358.084 104.179C357.758 103.365 357.303 102.682 356.717 102.128C356.131 101.575 355.366 101.298 354.422 101.298C354.064 101.493 353.657 101.721 353.201 101.982C352.745 102.242 352.322 102.372 351.932 102.372H351.736C351.639 102.372 351.59 102.405 351.59 102.47C351.59 102.503 351.59 102.519 351.59 102.519C351.622 102.519 351.639 102.535 351.639 102.568C351.801 103.512 351.915 104.488 351.98 105.497C352.078 106.506 352.127 107.532 352.127 108.573C352.127 109.387 352.094 110.331 352.029 111.406C351.997 112.447 351.883 113.456 351.688 114.433C351.492 115.377 351.199 116.174 350.809 116.825C350.451 117.509 349.93 117.851 349.246 117.851C348.758 117.851 348.286 117.688 347.83 117.363C347.407 117.037 347.195 116.5 347.195 115.751C347.195 115.556 347.212 115.409 347.244 115.312C347.863 113.163 348.172 110.771 348.172 108.134C348.172 105.367 347.911 103.04 347.391 101.152L347.244 100.956C346.919 100.924 346.561 100.859 346.17 100.761C345.812 100.663 345.47 100.533 345.145 100.37C344.819 100.175 344.542 99.9472 344.314 99.6868C344.087 99.3938 343.973 99.0357 343.973 98.6125C343.973 97.7987 344.396 97.1965 345.242 96.8059Z" fill="white"/>
<path d="M329.771 102.909C329.706 102.942 329.674 102.975 329.674 103.007H329.771C329.999 103.007 330.227 103.072 330.455 103.202C330.683 103.3 330.878 103.43 331.041 103.593C331.204 103.723 331.334 103.853 331.432 103.984C331.562 104.081 331.643 104.13 331.676 104.13C332.164 104.358 332.701 104.472 333.287 104.472C334.231 104.472 335.029 104.342 335.68 104.081C336.331 103.788 336.656 103.105 336.656 102.031C336.461 101.379 336.233 100.842 335.973 100.419C335.745 99.996 335.354 99.5891 334.801 99.1985L333.775 98.759H333.092C332.831 98.759 332.49 98.8241 332.066 98.9543C331.643 99.0846 331.22 99.2636 330.797 99.4915C330.667 99.6868 330.536 99.9797 330.406 100.37C330.276 100.728 330.162 101.087 330.064 101.445C329.967 101.803 329.885 102.128 329.82 102.421C329.788 102.714 329.771 102.877 329.771 102.909ZM330.162 107.646L330.016 107.109C330.406 108.834 331.35 110.25 332.848 111.357C333.173 111.617 333.58 111.845 334.068 112.04C334.589 112.236 335.094 112.415 335.582 112.577C336.103 112.74 336.559 112.87 336.949 112.968C337.34 113.033 337.584 113.066 337.682 113.066C338.007 112.773 338.414 112.626 338.902 112.626C339.488 112.691 339.944 112.935 340.27 113.359C340.595 113.749 340.758 114.172 340.758 114.628C340.758 115.344 340.416 115.914 339.732 116.337C339.081 116.793 338.382 117.021 337.633 117.021C336.038 117.021 334.524 116.695 333.092 116.044C331.66 115.426 330.406 114.579 329.332 113.505C328.258 112.431 327.379 111.194 326.695 109.794C326.044 108.394 325.686 106.913 325.621 105.351C325.621 104.277 325.702 103.121 325.865 101.884C326.028 100.647 326.37 99.5077 326.891 98.4661C327.411 97.3918 328.16 96.4967 329.137 95.7805C330.146 95.0644 331.48 94.7063 333.141 94.7063C334.182 94.7063 335.159 94.9342 336.07 95.3899C336.982 95.8131 337.763 96.399 338.414 97.1477C339.098 97.8964 339.635 98.759 340.025 99.7356C340.416 100.68 340.611 101.672 340.611 102.714C340.611 103.658 340.432 104.488 340.074 105.204C339.749 105.92 339.293 106.523 338.707 107.011C338.121 107.467 337.421 107.825 336.607 108.085C335.826 108.313 334.996 108.427 334.117 108.427C333.759 108.427 333.352 108.394 332.896 108.329C332.473 108.264 332.066 108.199 331.676 108.134C331.285 108.036 330.943 107.955 330.65 107.89C330.39 107.792 330.227 107.711 330.162 107.646Z" fill="white"/>
<path d="M320.207 91.3372C320.533 91.7603 320.695 92.1998 320.695 92.6555C320.695 93.2089 320.484 93.6484 320.061 93.9739C319.637 94.2668 319.133 94.4133 318.547 94.4133C318.254 94.4133 317.945 94.3319 317.619 94.1692C317.326 93.9739 317.017 93.7623 316.691 93.5344C316.398 93.274 316.089 93.0136 315.764 92.7532C315.471 92.4602 315.194 92.2323 314.934 92.0696C314.543 91.9719 314.234 91.8743 314.006 91.7766C313.778 91.6464 313.404 91.5487 312.883 91.4836C311.646 91.6464 310.523 92.1347 309.514 92.9485C308.505 93.7297 307.626 94.7226 306.877 95.927C306.161 97.0989 305.591 98.401 305.168 99.8333C304.777 101.266 304.582 102.682 304.582 104.081C304.582 105.221 304.729 106.295 305.021 107.304C305.314 108.281 305.77 109.159 306.389 109.941C307.007 110.689 307.756 111.292 308.635 111.747C309.546 112.17 310.62 112.382 311.857 112.382C313.225 112.382 314.527 112.105 315.764 111.552C317.001 110.999 317.896 110.201 318.449 109.159C318.97 108.411 319.556 108.036 320.207 108.036C320.663 108.036 321.102 108.199 321.525 108.525C321.981 108.818 322.209 109.257 322.209 109.843C322.209 110.331 322.079 110.803 321.818 111.259C321.558 111.682 321.232 112.089 320.842 112.48C320.451 112.838 320.028 113.18 319.572 113.505C319.117 113.798 318.693 114.059 318.303 114.286C317.359 114.937 316.35 115.409 315.275 115.702C314.201 115.995 313.143 116.142 312.102 116.142C310.572 116.142 309.123 115.898 307.756 115.409C306.389 114.889 305.184 114.156 304.143 113.212C303.133 112.268 302.32 111.096 301.701 109.697C301.083 108.297 300.773 106.685 300.773 104.863C300.773 101.445 301.424 98.3847 302.727 95.6829C304.061 92.9485 305.917 90.7024 308.293 88.9446C308.879 88.4889 309.546 88.1633 310.295 87.968C311.044 87.7402 311.825 87.6262 312.639 87.6262C313.55 87.6262 314.331 87.7239 314.982 87.9192C315.633 88.1145 316.236 88.3912 316.789 88.7493C317.375 89.0748 317.928 89.4654 318.449 89.9211C318.97 90.3769 319.556 90.8489 320.207 91.3372Z" fill="white"/>
<path d="M275.494 88.6028C275.657 88.0494 275.901 87.6099 276.227 87.2844C276.585 86.9589 276.992 86.7961 277.447 86.7961C278.424 86.7961 279.107 87.3821 279.498 88.554C279.498 90.9954 279.482 93.3066 279.449 95.4875C279.417 97.636 279.4 99.6705 279.4 101.591C279.4 104.846 279.596 108.378 279.986 112.187C280.279 112.284 280.637 112.398 281.061 112.529C281.516 112.626 281.939 112.789 282.33 113.017C282.753 113.212 283.095 113.473 283.355 113.798C283.648 114.124 283.795 114.531 283.795 115.019C283.795 115.507 283.6 115.93 283.209 116.288C282.851 116.679 282.411 116.874 281.891 116.874C281.533 116.874 281.142 116.777 280.719 116.581C279.579 116.028 278.701 115.654 278.082 115.458C277.496 115.23 277.04 114.986 276.715 114.726C276.422 114.433 276.227 113.993 276.129 113.407C276.031 112.789 275.934 111.812 275.836 110.478C275.608 109.273 275.494 107.955 275.494 106.523C275.494 105.09 275.494 103.707 275.494 102.372V88.6028Z" fill="white"/>
<path d="M264.564 108.964L264.223 108.915C263.734 108.818 263.279 108.655 262.855 108.427C262.465 108.199 262.074 107.971 261.684 107.743C261.293 107.516 260.919 107.32 260.561 107.157C260.202 106.962 259.844 106.865 259.486 106.865C258.347 106.995 257.354 107.385 256.508 108.036C255.694 108.687 255.287 109.469 255.287 110.38C255.287 110.641 255.352 110.917 255.482 111.21C255.613 111.503 255.824 111.878 256.117 112.333C256.964 112.854 257.891 113.115 258.9 113.115C260.072 113.115 261.098 113.001 261.977 112.773L262.611 112.138C262.937 111.715 263.376 111.503 263.93 111.503H264.174C264.206 111.243 264.239 110.982 264.271 110.722C264.304 110.462 264.353 110.201 264.418 109.941L264.564 108.964ZM265.297 114.872L264.174 115.947C263.751 116.337 263.067 116.614 262.123 116.777C261.212 116.972 260.251 117.07 259.242 117.07C257.875 117.07 256.703 116.923 255.727 116.63C254.783 116.337 253.952 115.767 253.236 114.921C252.064 113.359 251.479 111.894 251.479 110.527C251.479 109.615 251.658 108.72 252.016 107.841C252.406 106.93 252.943 106.116 253.627 105.4C254.311 104.684 255.141 104.098 256.117 103.642C257.126 103.186 258.249 102.958 259.486 102.958C260.007 103.023 260.512 103.137 261 103.3C261.488 103.463 261.944 103.642 262.367 103.837C262.79 104.032 263.165 104.228 263.49 104.423C263.848 104.586 264.125 104.716 264.32 104.814L264.027 103.495C263.865 102.975 263.669 102.47 263.441 101.982C263.214 101.461 262.937 100.956 262.611 100.468L261.635 99.5891C261.374 99.524 261.13 99.4426 260.902 99.345C260.674 99.2148 260.382 99.1497 260.023 99.1497C259.079 99.2148 258.152 99.345 257.24 99.5403C256.329 99.703 255.417 99.9472 254.506 100.273C254.408 100.305 254.262 100.322 254.066 100.322C253.383 100.322 252.846 100.126 252.455 99.7356C252.097 99.345 251.918 98.9218 251.918 98.4661C251.918 98.0754 252.016 97.7336 252.211 97.4407C252.406 97.1152 252.781 96.7896 253.334 96.4641C254.18 96.2037 255.108 95.927 256.117 95.634C257.159 95.3085 258.201 95.1458 259.242 95.1458C261.033 95.1458 262.514 95.5038 263.686 96.22C264.89 96.9361 265.834 97.8801 266.518 99.052C267.234 100.191 267.722 101.461 267.982 102.861C268.275 104.26 268.422 105.644 268.422 107.011C268.422 107.825 268.389 108.704 268.324 109.648C268.292 110.559 268.178 111.422 267.982 112.236C267.82 113.017 267.576 113.668 267.25 114.189C266.924 114.71 266.485 114.97 265.932 114.97C265.801 114.97 265.671 114.97 265.541 114.97C265.411 114.937 265.329 114.905 265.297 114.872Z" fill="white"/>
<path d="M246.896 96.7083C246.929 96.871 246.945 97.0175 246.945 97.1477C246.978 97.2454 246.994 97.3593 246.994 97.4895C246.994 98.0103 246.799 98.4823 246.408 98.9055C246.05 99.3287 245.594 99.5403 245.041 99.5403C244.748 99.5403 244.52 99.4915 244.357 99.3938C244.227 99.2961 244.081 99.1659 243.918 99.0032C243.788 98.8404 243.609 98.6451 243.381 98.4172C243.186 98.1894 242.876 97.9452 242.453 97.6848L241.574 97.3918C241.151 97.2616 240.679 97.1965 240.158 97.1965C239.117 97.1965 238.205 97.4569 237.424 97.9778C236.643 98.4661 235.975 99.1008 235.422 99.8821C234.901 100.663 234.494 101.526 234.201 102.47C233.941 103.414 233.811 104.325 233.811 105.204C233.811 106.181 233.957 107.092 234.25 107.939C234.576 108.753 235.031 109.469 235.617 110.087C236.236 110.673 236.968 111.145 237.814 111.503C238.693 111.861 239.67 112.04 240.744 112.04C241.395 112.04 242.046 111.959 242.697 111.796C243.348 111.633 243.934 111.34 244.455 110.917L244.602 110.722C244.992 110.136 245.529 109.843 246.213 109.843C246.473 109.843 246.783 109.892 247.141 109.99L247.336 110.087C248.02 110.641 248.361 111.21 248.361 111.796C248.361 112.512 248.085 113.131 247.531 113.652C246.978 114.172 246.311 114.612 245.529 114.97C244.748 115.295 243.918 115.54 243.039 115.702C242.193 115.865 241.477 115.947 240.891 115.947C239.328 115.947 237.88 115.702 236.545 115.214C235.21 114.693 234.038 113.977 233.029 113.066C232.053 112.122 231.271 110.982 230.686 109.648C230.132 108.313 229.855 106.799 229.855 105.107C229.855 103.577 230.116 102.096 230.637 100.663C231.158 99.231 231.89 97.9615 232.834 96.8547C233.778 95.7154 234.901 94.804 236.203 94.1204C237.538 93.4368 239.019 93.095 240.646 93.095C241.818 93.095 242.941 93.3717 244.016 93.925C245.122 94.4459 246.083 95.3736 246.896 96.7083Z" fill="white"/>
<path d="M218.973 102.568C219.135 101.819 219.428 101.331 219.852 101.103C220.275 100.842 220.763 100.712 221.316 100.712C221.772 100.777 222.163 101.021 222.488 101.445C222.814 101.868 222.977 102.389 222.977 103.007C222.911 104.277 222.846 105.416 222.781 106.425C222.716 107.402 222.667 108.362 222.635 109.306C222.602 110.25 222.57 111.243 222.537 112.284C222.537 113.294 222.537 114.465 222.537 115.8C222.537 116.353 222.326 116.809 221.902 117.167C221.479 117.558 221.04 117.753 220.584 117.753C220.128 117.753 219.689 117.59 219.266 117.265C218.842 116.939 218.598 116.435 218.533 115.751C218.533 113.18 218.582 110.982 218.68 109.159L218.973 102.568ZM216.873 95.4387C216.482 95.276 216.157 95.0318 215.896 94.7063C215.669 94.3482 215.555 93.9902 215.555 93.6321C215.555 93.1438 215.717 92.6718 216.043 92.2161C216.401 91.7603 216.954 91.5325 217.703 91.5325C218.647 91.6952 219.477 91.9719 220.193 92.3625C220.91 92.7532 221.642 92.9973 222.391 93.095C222.977 93.2577 223.4 93.5507 223.66 93.9739C223.921 94.3645 224.051 94.7551 224.051 95.1458C224.051 95.6015 223.872 96.0409 223.514 96.4641C223.188 96.8873 222.749 97.0989 222.195 97.0989C221.707 97.0989 221.235 97.0338 220.779 96.9036C220.356 96.7734 219.933 96.6106 219.51 96.4153C219.087 96.22 218.663 96.0409 218.24 95.8782C217.817 95.6829 217.361 95.5364 216.873 95.4387Z" fill="white"/>
<path d="M202.865 88.6028C202.442 88.4075 202.117 88.1308 201.889 87.7727C201.661 87.3821 201.547 87.0077 201.547 86.6497C201.547 86.1939 201.726 85.7545 202.084 85.3313C202.442 84.9081 202.979 84.6965 203.695 84.6965C205.258 84.9895 206.446 85.429 207.26 86.0149C208.074 86.5683 208.66 87.2681 209.018 88.1145C209.376 88.9283 209.571 89.8723 209.604 90.9465C209.636 92.0208 209.652 93.1926 209.652 94.4622C209.652 95.6666 209.636 96.8547 209.604 98.0266C209.571 99.1985 209.555 100.403 209.555 101.64V105.644C209.555 106.262 209.538 106.93 209.506 107.646C209.473 108.329 209.441 109.013 209.408 109.697C209.376 110.38 209.343 111.031 209.311 111.65C209.278 112.268 209.262 112.789 209.262 113.212C209.262 114.775 208.741 115.947 207.699 116.728C206.69 117.542 204.867 117.948 202.23 117.948C200.831 117.948 199.545 117.607 198.373 116.923C197.234 116.24 196.241 115.377 195.395 114.335C194.581 113.261 193.93 112.105 193.441 110.868C192.986 109.599 192.758 108.378 192.758 107.206C192.758 105.611 193.083 104.277 193.734 103.202C194.385 102.128 195.199 101.282 196.176 100.663C197.152 100.045 198.178 99.6054 199.252 99.345C200.359 99.0846 201.352 98.9543 202.23 98.9543C202.784 98.9543 203.337 98.9706 203.891 99.0032C204.444 99.0032 205.014 99.0032 205.6 99.0032C205.632 97.929 205.665 96.7896 205.697 95.5852C205.73 94.3482 205.746 93.1438 205.746 91.9719C205.746 91.4511 205.697 90.9628 205.6 90.5071C205.535 90.0514 205.372 89.6119 205.111 89.1887C204.753 88.9934 204.411 88.8795 204.086 88.8469C203.76 88.7818 203.354 88.7004 202.865 88.6028ZM205.551 103.105C205.583 103.04 205.6 103.007 205.6 103.007C205.567 102.975 205.551 102.958 205.551 102.958C204.77 102.958 203.939 102.942 203.061 102.909C202.214 102.877 201.384 102.942 200.57 103.105C199.789 103.235 199.073 103.512 198.422 103.935C197.803 104.325 197.331 104.944 197.006 105.79C196.941 105.986 196.876 106.213 196.811 106.474C196.778 106.734 196.729 106.978 196.664 107.206C196.924 109.355 197.576 110.934 198.617 111.943C199.659 112.952 201.254 113.587 203.402 113.847C203.728 113.749 204.037 113.668 204.33 113.603C204.656 113.538 204.916 113.489 205.111 113.456C205.176 111.959 205.258 110.445 205.355 108.915C205.486 107.385 205.551 105.807 205.551 104.179V103.105Z" fill="white"/>
<path d="M178.312 102.909C178.247 102.942 178.215 102.975 178.215 103.007H178.312C178.54 103.007 178.768 103.072 178.996 103.202C179.224 103.3 179.419 103.43 179.582 103.593C179.745 103.723 179.875 103.853 179.973 103.984C180.103 104.081 180.184 104.13 180.217 104.13C180.705 104.358 181.242 104.472 181.828 104.472C182.772 104.472 183.57 104.342 184.221 104.081C184.872 103.788 185.197 103.105 185.197 102.031C185.002 101.379 184.774 100.842 184.514 100.419C184.286 99.996 183.895 99.5891 183.342 99.1985L182.316 98.759H181.633C181.372 98.759 181.031 98.8241 180.607 98.9543C180.184 99.0846 179.761 99.2636 179.338 99.4915C179.208 99.6868 179.077 99.9797 178.947 100.37C178.817 100.728 178.703 101.087 178.605 101.445C178.508 101.803 178.426 102.128 178.361 102.421C178.329 102.714 178.312 102.877 178.312 102.909ZM178.703 107.646L178.557 107.109C178.947 108.834 179.891 110.25 181.389 111.357C181.714 111.617 182.121 111.845 182.609 112.04C183.13 112.236 183.635 112.415 184.123 112.577C184.644 112.74 185.1 112.87 185.49 112.968C185.881 113.033 186.125 113.066 186.223 113.066C186.548 112.773 186.955 112.626 187.443 112.626C188.029 112.691 188.485 112.935 188.811 113.359C189.136 113.749 189.299 114.172 189.299 114.628C189.299 115.344 188.957 115.914 188.273 116.337C187.622 116.793 186.923 117.021 186.174 117.021C184.579 117.021 183.065 116.695 181.633 116.044C180.201 115.426 178.947 114.579 177.873 113.505C176.799 112.431 175.92 111.194 175.236 109.794C174.585 108.394 174.227 106.913 174.162 105.351C174.162 104.277 174.243 103.121 174.406 101.884C174.569 100.647 174.911 99.5077 175.432 98.4661C175.952 97.3918 176.701 96.4967 177.678 95.7805C178.687 95.0644 180.021 94.7063 181.682 94.7063C182.723 94.7063 183.7 94.9342 184.611 95.3899C185.523 95.8131 186.304 96.399 186.955 97.1477C187.639 97.8964 188.176 98.759 188.566 99.7356C188.957 100.68 189.152 101.672 189.152 102.714C189.152 103.658 188.973 104.488 188.615 105.204C188.29 105.92 187.834 106.523 187.248 107.011C186.662 107.467 185.962 107.825 185.148 108.085C184.367 108.313 183.537 108.427 182.658 108.427C182.3 108.427 181.893 108.394 181.438 108.329C181.014 108.264 180.607 108.199 180.217 108.134C179.826 108.036 179.484 107.955 179.191 107.89C178.931 107.792 178.768 107.711 178.703 107.646Z" fill="white"/>
<path d="M161.816 90.8977L163.037 89.0911C163.525 88.6679 163.867 88.4237 164.062 88.3586C164.29 88.261 164.567 88.2122 164.893 88.2122H165.234L165.918 88.4075L166.357 88.7981C166.683 89.0911 166.96 89.5631 167.188 90.2141C167.415 90.8326 167.611 91.4999 167.773 92.2161C167.936 92.9322 168.066 93.6321 168.164 94.3157C168.262 94.9667 168.359 95.4875 168.457 95.8782C168.685 96.9524 168.864 97.8639 168.994 98.6125C169.124 99.3612 169.238 100.061 169.336 100.712C169.434 101.363 169.531 102.063 169.629 102.812C169.759 103.56 169.938 104.472 170.166 105.546C170.426 106.881 170.654 108.167 170.85 109.404C171.077 110.608 171.191 111.861 171.191 113.163C171.191 114.335 170.98 115.116 170.557 115.507C170.133 115.898 169.596 116.093 168.945 116.093C168.457 116.028 168.05 115.833 167.725 115.507C167.399 115.182 167.22 114.726 167.188 114.14C167.22 113.879 167.236 113.635 167.236 113.407C167.269 113.18 167.285 112.935 167.285 112.675C167.285 111.406 167.139 110.185 166.846 109.013C166.585 107.809 166.325 106.555 166.064 105.253C165.609 102.909 165.251 100.891 164.99 99.1985C164.762 97.5058 164.453 95.9107 164.062 94.4133L163.818 94.7551C163.2 95.6666 162.581 96.6269 161.963 97.636C161.344 98.6125 160.742 99.5891 160.156 100.566C159.603 101.542 159.066 102.47 158.545 103.349C158.057 104.228 157.617 105.009 157.227 105.693C156.641 106.376 156.071 106.718 155.518 106.718C154.997 106.718 154.492 106.458 154.004 105.937C153.548 105.383 153.109 104.7 152.686 103.886C152.262 103.072 151.872 102.21 151.514 101.298C151.188 100.354 150.895 99.5077 150.635 98.759L149.121 95.1946C148.861 96.4316 148.649 97.7662 148.486 99.1985C148.356 100.598 148.258 102.063 148.193 103.593C148.128 105.09 148.079 106.62 148.047 108.183C148.047 109.745 148.047 111.292 148.047 112.822C148.047 113.407 147.835 113.879 147.412 114.238C146.989 114.596 146.549 114.775 146.094 114.775C145.508 114.775 145.068 114.628 144.775 114.335C144.515 114.042 144.336 113.635 144.238 113.115C144.141 112.594 144.092 112.008 144.092 111.357C144.092 110.673 144.092 109.957 144.092 109.208C144.092 106.962 144.141 104.732 144.238 102.519C144.336 100.305 144.613 98.0754 145.068 95.8293C145.199 95.4062 145.296 94.8202 145.361 94.0715C145.459 93.2903 145.605 92.5416 145.801 91.8254C146.029 91.1093 146.338 90.4908 146.729 89.97C147.152 89.4166 147.738 89.1399 148.486 89.1399C149.072 89.1399 149.674 89.4491 150.293 90.0676C150.911 90.6536 151.497 91.4185 152.051 92.3625C152.637 93.3066 153.174 94.3482 153.662 95.4875C154.183 96.6269 154.622 97.7499 154.98 98.8567C155.273 99.8333 155.534 100.322 155.762 100.322C155.762 100.322 155.876 100.159 156.104 99.8333C156.331 99.5077 156.608 99.1008 156.934 98.6125C157.259 98.0917 157.601 97.5383 157.959 96.9524C158.35 96.3339 158.708 95.7317 159.033 95.1458L161.23 91.7766C161.426 91.5487 161.621 91.2558 161.816 90.8977Z" fill="white"/>
<path d="M118.959 88.6028C119.122 88.0494 119.366 87.6099 119.691 87.2844C120.049 86.9589 120.456 86.7961 120.912 86.7961C121.889 86.7961 122.572 87.3821 122.963 88.554C122.963 90.9954 122.947 93.3066 122.914 95.4875C122.882 97.636 122.865 99.6705 122.865 101.591C122.865 104.846 123.061 108.378 123.451 112.187C123.744 112.284 124.102 112.398 124.525 112.529C124.981 112.626 125.404 112.789 125.795 113.017C126.218 113.212 126.56 113.473 126.82 113.798C127.113 114.124 127.26 114.531 127.26 115.019C127.26 115.507 127.064 115.93 126.674 116.288C126.316 116.679 125.876 116.874 125.355 116.874C124.997 116.874 124.607 116.777 124.184 116.581C123.044 116.028 122.165 115.654 121.547 115.458C120.961 115.23 120.505 114.986 120.18 114.726C119.887 114.433 119.691 113.993 119.594 113.407C119.496 112.789 119.398 111.812 119.301 110.478C119.073 109.273 118.959 107.955 118.959 106.523C118.959 105.09 118.959 103.707 118.959 102.372V88.6028Z" fill="white"/>
<path d="M108.027 108.964L107.686 108.915C107.197 108.818 106.742 108.655 106.318 108.427C105.928 108.199 105.537 107.971 105.146 107.743C104.756 107.516 104.382 107.32 104.023 107.157C103.665 106.962 103.307 106.865 102.949 106.865C101.81 106.995 100.817 107.385 99.9707 108.036C99.1569 108.687 98.75 109.469 98.75 110.38C98.75 110.641 98.8151 110.917 98.9453 111.21C99.0755 111.503 99.2871 111.878 99.5801 112.333C100.426 112.854 101.354 113.115 102.363 113.115C103.535 113.115 104.561 113.001 105.439 112.773L106.074 112.138C106.4 111.715 106.839 111.503 107.393 111.503H107.637C107.669 111.243 107.702 110.982 107.734 110.722C107.767 110.462 107.816 110.201 107.881 109.941L108.027 108.964ZM108.76 114.872L107.637 115.947C107.214 116.337 106.53 116.614 105.586 116.777C104.674 116.972 103.714 117.07 102.705 117.07C101.338 117.07 100.166 116.923 99.1895 116.63C98.2454 116.337 97.4154 115.767 96.6992 114.921C95.5273 113.359 94.9414 111.894 94.9414 110.527C94.9414 109.615 95.1204 108.72 95.4785 107.841C95.8691 106.93 96.4062 106.116 97.0898 105.4C97.7734 104.684 98.6035 104.098 99.5801 103.642C100.589 103.186 101.712 102.958 102.949 102.958C103.47 103.023 103.975 103.137 104.463 103.3C104.951 103.463 105.407 103.642 105.83 103.837C106.253 104.032 106.628 104.228 106.953 104.423C107.311 104.586 107.588 104.716 107.783 104.814L107.49 103.495C107.327 102.975 107.132 102.47 106.904 101.982C106.676 101.461 106.4 100.956 106.074 100.468L105.098 99.5891C104.837 99.524 104.593 99.4426 104.365 99.345C104.137 99.2148 103.844 99.1497 103.486 99.1497C102.542 99.2148 101.615 99.345 100.703 99.5403C99.7917 99.703 98.8802 99.9472 97.9688 100.273C97.8711 100.305 97.7246 100.322 97.5293 100.322C96.8457 100.322 96.3086 100.126 95.918 99.7356C95.5599 99.345 95.3809 98.9218 95.3809 98.4661C95.3809 98.0754 95.4785 97.7336 95.6738 97.4407C95.8691 97.1152 96.2435 96.7896 96.7969 96.4641C97.6432 96.2037 98.571 95.927 99.5801 95.634C100.622 95.3085 101.663 95.1458 102.705 95.1458C104.495 95.1458 105.977 95.5038 107.148 96.22C108.353 96.9361 109.297 97.8801 109.98 99.052C110.697 100.191 111.185 101.461 111.445 102.861C111.738 104.26 111.885 105.644 111.885 107.011C111.885 107.825 111.852 108.704 111.787 109.648C111.755 110.559 111.641 111.422 111.445 112.236C111.283 113.017 111.038 113.668 110.713 114.189C110.387 114.71 109.948 114.97 109.395 114.97C109.264 114.97 109.134 114.97 109.004 114.97C108.874 114.937 108.792 114.905 108.76 114.872Z" fill="white"/>
<path d="M65.5547 96.8059C65.6849 96.7734 65.8314 96.7571 65.9941 96.7571C66.1569 96.7571 66.3522 96.7408 66.5801 96.7083H66.6289H67.166C68.7611 96.7083 69.9329 97.2942 70.6816 98.4661L70.877 98.2708C71.0072 98.2382 71.2188 98.0754 71.5117 97.7825L71.6582 97.7336C72.5697 97.2779 73.3835 97.05 74.0996 97.05C75.5645 97.05 76.7689 97.5058 77.7129 98.4172C78.6569 99.3287 79.4056 100.403 79.959 101.64C79.959 101.672 79.9915 101.721 80.0566 101.786L80.1055 101.835C80.431 101.347 80.8053 100.875 81.2285 100.419C81.6517 99.9309 82.0911 99.5077 82.5469 99.1497C83.0352 98.759 83.5234 98.4498 84.0117 98.2219C84.5326 97.9941 85.0534 97.8801 85.5742 97.8801C86.4531 97.8801 87.2507 98.2056 87.9668 98.8567C88.6829 99.4752 89.2852 100.289 89.7734 101.298C90.2943 102.307 90.7012 103.447 90.9941 104.716C91.2871 105.986 91.4336 107.271 91.4336 108.573C91.4336 109.876 91.3848 111.194 91.2871 112.529C91.1895 113.831 91.1406 115.165 91.1406 116.532C90.9779 117.314 90.6849 117.786 90.2617 117.948C89.8385 118.144 89.4805 118.241 89.1875 118.241L88.0645 117.851C87.9342 117.721 87.6738 117.379 87.2832 116.825V116.777C87.2507 116.777 87.2344 116.76 87.2344 116.728C87.2344 116.695 87.2181 116.679 87.1855 116.679C87.1855 116.679 87.1855 116.646 87.1855 116.581L87.0879 116.24C86.9902 115.947 86.9414 115.637 86.9414 115.312C86.9414 115.051 86.974 114.807 87.0391 114.579C87.1367 114.319 87.2181 114.107 87.2832 113.945L87.4297 112.724C87.4948 112.073 87.5436 111.422 87.5762 110.771C87.6087 110.087 87.625 109.404 87.625 108.72C87.625 107.418 87.4785 106.181 87.1855 105.009C86.8926 103.837 86.3717 102.893 85.623 102.177C84.679 102.763 83.9141 103.512 83.3281 104.423C82.7747 105.335 82.3353 106.36 82.0098 107.499C81.7168 108.639 81.5052 109.859 81.375 111.161C81.2773 112.431 81.2285 113.7 81.2285 114.97C81.2285 115.491 81.0332 115.947 80.6426 116.337C80.252 116.728 79.8288 116.923 79.373 116.923C78.9173 116.923 78.4453 116.777 77.957 116.484C77.5013 116.191 77.2734 115.67 77.2734 114.921C77.2734 114.14 77.2734 113.342 77.2734 112.529C77.306 111.715 77.3548 110.836 77.4199 109.892C77.4199 108.948 77.3711 108.004 77.2734 107.06C77.2083 106.116 77.0781 105.237 76.8828 104.423C76.6875 103.609 76.4108 102.909 76.0527 102.323C75.6947 101.705 75.2389 101.266 74.6855 101.005C74.3275 101.005 73.9857 101.07 73.6602 101.2C73.3672 101.331 73.0742 101.477 72.7812 101.64L72.6348 101.738C72.2767 102.096 72.0488 102.291 71.9512 102.323C71.9512 103.3 72.0326 104.309 72.1953 105.351C72.3581 106.392 72.4395 107.467 72.4395 108.573C72.4395 109.387 72.4069 110.331 72.3418 111.406C72.3092 112.447 72.1953 113.456 72 114.433C71.8047 115.377 71.5117 116.174 71.1211 116.825C70.763 117.509 70.2422 117.851 69.5586 117.851C69.0703 117.851 68.5983 117.688 68.1426 117.363C67.7194 117.037 67.5078 116.5 67.5078 115.751C67.5078 115.556 67.5241 115.409 67.5566 115.312C68.1751 113.163 68.4844 110.771 68.4844 108.134C68.4844 105.367 68.224 103.04 67.7031 101.152L67.5566 100.956C67.2311 100.924 66.873 100.859 66.4824 100.761C66.1243 100.663 65.7826 100.533 65.457 100.37C65.1315 100.175 64.8548 99.9472 64.627 99.6868C64.3991 99.3938 64.2852 99.0357 64.2852 98.6125C64.2852 97.7987 64.7083 97.1965 65.5547 96.8059Z" fill="white"/>
<path d="M53.8438 102.568C54.0065 101.819 54.2995 101.331 54.7227 101.103C55.1458 100.842 55.6341 100.712 56.1875 100.712C56.6432 100.777 57.0339 101.021 57.3594 101.445C57.6849 101.868 57.8477 102.389 57.8477 103.007C57.7826 104.277 57.7174 105.416 57.6523 106.425C57.5872 107.402 57.5384 108.362 57.5059 109.306C57.4733 110.25 57.4408 111.243 57.4082 112.284C57.4082 113.294 57.4082 114.465 57.4082 115.8C57.4082 116.353 57.1966 116.809 56.7734 117.167C56.3503 117.558 55.9108 117.753 55.4551 117.753C54.9993 117.753 54.5599 117.59 54.1367 117.265C53.7135 116.939 53.4694 116.435 53.4043 115.751C53.4043 113.18 53.4531 110.982 53.5508 109.159L53.8438 102.568ZM51.7441 95.4387C51.3535 95.276 51.028 95.0318 50.7676 94.7063C50.5397 94.3482 50.4258 93.9902 50.4258 93.6321C50.4258 93.1438 50.5885 92.6718 50.9141 92.2161C51.2721 91.7603 51.8255 91.5325 52.5742 91.5325C53.5182 91.6952 54.3483 91.9719 55.0645 92.3625C55.7806 92.7532 56.513 92.9973 57.2617 93.095C57.8477 93.2577 58.2708 93.5507 58.5312 93.9739C58.7917 94.3645 58.9219 94.7551 58.9219 95.1458C58.9219 95.6015 58.7428 96.0409 58.3848 96.4641C58.0592 96.8873 57.6198 97.0989 57.0664 97.0989C56.5781 97.0989 56.1061 97.0338 55.6504 96.9036C55.2272 96.7734 54.804 96.6106 54.3809 96.4153C53.9577 96.22 53.5345 96.0409 53.1113 95.8782C52.6882 95.6829 52.2324 95.5364 51.7441 95.4387Z" fill="white"/>
<path d="M27.0938 96.8059C27.224 96.7734 27.3704 96.7571 27.5332 96.7571C27.696 96.7571 27.8913 96.7408 28.1191 96.7083H28.168C29.3398 96.7083 30.235 96.9036 30.8535 97.2942C31.5046 97.6523 32.0579 98.2708 32.5137 99.1497C33.1647 98.4986 33.832 98.0429 34.5156 97.7825C35.1992 97.4895 35.9154 97.343 36.6641 97.343C37.9336 97.343 39.0729 97.6685 40.082 98.3196C41.0911 98.9381 41.9375 99.7681 42.6211 100.81C43.3372 101.851 43.8743 103.072 44.2324 104.472C44.623 105.839 44.8184 107.255 44.8184 108.72C44.8184 110.087 44.7044 111.422 44.4766 112.724C44.2812 114.026 44.1348 115.263 44.0371 116.435C43.679 117.281 43.0605 117.802 42.1816 117.997H41.9863C41.5306 117.932 41.0749 117.753 40.6191 117.46C40.196 117.167 39.9844 116.646 39.9844 115.898L40.0332 115.409C40.0658 115.247 40.0983 115.116 40.1309 115.019C40.1634 114.889 40.196 114.775 40.2285 114.677L40.5215 112.529C40.5866 111.943 40.6354 111.357 40.668 110.771C40.7331 110.185 40.7656 109.583 40.7656 108.964C40.7656 108.313 40.7005 107.548 40.5703 106.669C40.4727 105.79 40.2611 104.96 39.9355 104.179C39.61 103.365 39.1543 102.682 38.5684 102.128C37.9824 101.575 37.2174 101.298 36.2734 101.298C35.9154 101.493 35.5085 101.721 35.0527 101.982C34.597 102.242 34.1738 102.372 33.7832 102.372H33.5879C33.4902 102.372 33.4414 102.405 33.4414 102.47C33.4414 102.503 33.4414 102.519 33.4414 102.519C33.474 102.519 33.4902 102.535 33.4902 102.568C33.653 103.512 33.7669 104.488 33.832 105.497C33.9297 106.506 33.9785 107.532 33.9785 108.573C33.9785 109.387 33.946 110.331 33.8809 111.406C33.8483 112.447 33.7344 113.456 33.5391 114.433C33.3438 115.377 33.0508 116.174 32.6602 116.825C32.3021 117.509 31.7812 117.851 31.0977 117.851C30.6094 117.851 30.1374 117.688 29.6816 117.363C29.2585 117.037 29.0469 116.5 29.0469 115.751C29.0469 115.556 29.0632 115.409 29.0957 115.312C29.7142 113.163 30.0234 110.771 30.0234 108.134C30.0234 105.367 29.763 103.04 29.2422 101.152L29.0957 100.956C28.7702 100.924 28.4121 100.859 28.0215 100.761C27.6634 100.663 27.3216 100.533 26.9961 100.37C26.6706 100.175 26.3939 99.9472 26.166 99.6868C25.9382 99.3938 25.8242 99.0357 25.8242 98.6125C25.8242 97.7987 26.2474 97.1965 27.0938 96.8059Z" fill="white"/>
<path d="M7.12891 106.523C6.96615 106.49 6.81966 106.474 6.68945 106.474C6.62435 106.474 6.46159 106.718 6.20117 107.206C5.94076 107.662 5.63151 108.199 5.27344 108.818C4.94792 109.404 4.6224 110.006 4.29688 110.624C3.97135 111.21 3.72721 111.633 3.56445 111.894C3.04362 112.512 2.45768 112.822 1.80664 112.822C1.31836 112.822 0.895182 112.659 0.537109 112.333C0.179036 111.975 0 111.471 0 110.82C0 110.559 0.016276 110.348 0.0488281 110.185C1.12305 108.297 2.14844 106.441 3.125 104.618C4.10156 102.795 5.11068 100.989 6.15234 99.1985C7.22656 97.4081 8.34961 95.6666 9.52148 93.9739C10.6934 92.2486 12.0117 90.5722 13.4766 88.9446C13.7044 88.6842 13.9486 88.5214 14.209 88.4563C14.4694 88.3586 14.7135 88.2935 14.9414 88.261C15.4297 88.261 15.8366 88.44 16.1621 88.7981C16.5202 89.1562 16.7318 89.5956 16.7969 90.1165C16.6992 90.4745 16.5853 90.7187 16.4551 90.8489L16.8457 90.6536C17.2689 90.6536 17.7083 90.7675 18.1641 90.9954C18.6523 91.2232 18.9941 91.6627 19.1895 92.3137C19.4499 94.1366 19.7591 95.9107 20.1172 97.636C20.4753 99.3287 20.8171 101.038 21.1426 102.763C21.5007 104.456 21.8099 106.165 22.0703 107.89C22.3633 109.615 22.5423 111.406 22.6074 113.261C22.6074 113.912 22.4121 114.417 22.0215 114.775C21.6309 115.1 21.2077 115.263 20.752 115.263C20.2637 115.263 19.7917 115.116 19.3359 114.823C18.9128 114.531 18.6686 114.026 18.6035 113.31C18.5384 111.031 18.3431 108.883 18.0176 106.865C17.9525 106.93 17.7734 106.978 17.4805 107.011C15.7227 107.011 13.9648 106.93 12.207 106.767C10.4818 106.604 8.78906 106.523 7.12891 106.523ZM8.83789 102.616C10.0098 102.682 11.377 102.763 12.9395 102.861C14.502 102.958 15.9342 103.007 17.2363 103.007H17.2852L17.2363 102.763C17.1387 102.437 17.0247 101.965 16.8945 101.347C16.7643 100.728 16.6178 100.061 16.4551 99.345C16.3249 98.6288 16.1784 97.8964 16.0156 97.1477C15.8854 96.3665 15.7552 95.6666 15.625 95.0481C15.4948 94.4296 15.3809 93.925 15.2832 93.5344C15.2181 93.1438 15.1855 92.9485 15.1855 92.9485C14.8926 93.2089 14.4857 93.6809 13.9648 94.3645C13.5091 94.9504 12.9232 95.8131 12.207 96.9524C11.4909 98.0592 10.5957 99.5728 9.52148 101.493L8.83789 102.616Z" fill="white"/>
<path d="M342.844 56.8001C337.67 57.3334 332.604 57.6001 327.644 57.6001C324.017 57.6001 321.11 56.5067 318.924 54.32C316.737 52.1334 315.644 49.2267 315.644 45.6001V25.2001H310.844V14.4001H315.644L317.244 4.80005H329.644V14.4001H339.644V25.2001H329.644V43.6001C329.644 44.4001 329.91 45.0667 330.444 45.6001C330.977 46.1334 331.644 46.4001 332.444 46.4001H342.844V56.8001Z" fill="white"/>
<path d="M281.975 23.6001C279.842 23.6001 278.775 24.6668 278.775 26.8001V31.2001H292.375V26.8001C292.375 24.6668 291.309 23.6001 289.175 23.6001H281.975ZM304.775 56.0001C294.482 57.0668 285.149 57.6001 276.775 57.6001C273.149 57.6001 270.242 56.5068 268.055 54.3201C265.869 52.1334 264.775 49.2268 264.775 45.6001V26.4001C264.775 22.4001 265.895 19.2801 268.135 17.0401C270.429 14.7468 273.575 13.6001 277.575 13.6001H293.575C297.575 13.6001 300.695 14.7468 302.935 17.0401C305.229 19.2801 306.375 22.4001 306.375 26.4001V41.2001H278.775V44.4001C278.775 45.2001 279.042 45.8668 279.575 46.4001C280.109 46.9334 280.775 47.2001 281.575 47.2001C286.855 47.2001 294.589 46.8001 304.775 46.0001V56.0001Z" fill="white"/>
<path d="M209.879 0.800049H243.479C249.079 0.800049 253.132 2.08005 255.639 4.64005C258.199 7.14672 259.479 11.2001 259.479 16.8001V24.8001C259.479 30.4001 258.199 34.4801 255.639 37.0401C253.132 39.5467 249.079 40.8001 243.479 40.8001H224.279V56.8001H209.879V0.800049ZM245.079 16.8001C245.079 13.6001 243.479 12.0001 240.279 12.0001H224.279V29.6001H240.279C243.479 29.6001 245.079 28.0001 245.079 24.8001V16.8001Z" fill="white"/>
<path d="M164.875 44.8H179.275V56L173.675 64.8H166.475L169.675 56.8H164.875V44.8Z" fill="white"/>
<path d="M158.75 16V56.8H144.75V26.8H138.75V16H158.75ZM144.75 0H158.75V11.2H144.75V0Z" fill="white"/>
<path d="M132.613 56.8001H118.212V34H98.2125V56.8001H83.8125V0.800049H98.2125V22.8001H118.212V0.800049H132.613V56.8001Z" fill="white"/>
</svg>
