<svg width="100" height="100" viewBox="0 0 100 100" fill="none" xmlns="http://www.w3.org/2000/svg">
<path fill-rule="evenodd" clip-rule="evenodd" d="M16.6673 16.6667C14.4572 16.6667 12.3376 17.5447 10.7748 19.1075C9.21196 20.6703 8.33398 22.7899 8.33398 25.0001V75.0001C8.33398 77.2102 9.21196 79.3298 10.7748 80.8926C12.3376 82.4554 14.4572 83.3334 16.6673 83.3334H83.334C85.5441 83.3334 87.6637 82.4554 89.2265 80.8926C90.7893 79.3298 91.6673 77.2102 91.6673 75.0001V25.0001C91.6673 22.7899 90.7893 20.6703 89.2265 19.1075C87.6637 17.5447 85.5441 16.6667 83.334 16.6667H16.6673ZM58.334 37.5001C58.334 36.395 58.773 35.3352 59.5544 34.5538C60.3358 33.7724 61.3956 33.3334 62.5007 33.3334H75.0007C76.1057 33.3334 77.1655 33.7724 77.9469 34.5538C78.7283 35.3352 79.1673 36.395 79.1673 37.5001C79.1673 38.6051 78.7283 39.665 77.9469 40.4464C77.1655 41.2278 76.1057 41.6667 75.0007 41.6667H62.5007C61.3956 41.6667 60.3358 41.2278 59.5544 40.4464C58.773 39.665 58.334 38.6051 58.334 37.5001ZM58.334 50.0001C58.334 48.895 58.773 47.8352 59.5544 47.0538C60.3358 46.2724 61.3956 45.8334 62.5007 45.8334H75.0007C76.1057 45.8334 77.1655 46.2724 77.9469 47.0538C78.7283 47.8352 79.1673 48.895 79.1673 50.0001C79.1673 51.1051 78.7283 52.165 77.9469 52.9464C77.1655 53.7278 76.1057 54.1667 75.0007 54.1667H62.5007C61.3956 54.1667 60.3358 53.7278 59.5544 52.9464C58.773 52.165 58.334 51.1051 58.334 50.0001ZM58.334 62.5001C58.334 61.395 58.773 60.3352 59.5544 59.5538C60.3358 58.7724 61.3956 58.3334 62.5007 58.3334H75.0007C76.1057 58.3334 77.1655 58.7724 77.9469 59.5538C78.7283 60.3352 79.1673 61.395 79.1673 62.5001C79.1673 63.6051 78.7283 64.665 77.9469 65.4464C77.1655 66.2278 76.1057 66.6667 75.0007 66.6667H62.5007C61.3956 66.6667 60.3358 66.2278 59.5544 65.4464C58.773 64.665 58.334 63.6051 58.334 62.5001ZM25.0007 41.6667C25.0007 38.3515 26.3176 35.1721 28.6618 32.8279C31.006 30.4837 34.1854 29.1667 37.5007 29.1667C40.8159 29.1667 43.9953 30.4837 46.3395 32.8279C48.6837 35.1721 50.0007 38.3515 50.0007 41.6667C50.0007 44.982 48.6837 48.1614 46.3395 50.5056C43.9953 52.8498 40.8159 54.1667 37.5007 54.1667C34.1854 54.1667 31.006 52.8498 28.6618 50.5056C26.3176 48.1614 25.0007 44.982 25.0007 41.6667ZM33.0923 58.3334C30.4683 58.3325 27.9105 59.1574 25.7814 60.6912C23.6523 62.225 22.0599 64.39 21.2298 66.8792L21.0465 67.4334L21.0298 67.4834C20.8548 68.0084 20.8007 68.1792 20.8548 68.2959C20.8798 68.3501 20.9382 68.3917 21.0132 68.4584C21.1465 68.5626 21.3465 68.7251 21.6215 69.1042C22.0076 69.6395 22.5152 70.0754 23.1027 70.376C23.6902 70.6766 24.3407 70.8334 25.0007 70.8334H50.0007C50.6606 70.8334 51.3111 70.6766 51.8986 70.376C52.4861 70.0754 52.9938 69.6395 53.3798 69.1042C53.5485 68.8592 53.7536 68.6414 53.9882 68.4584C54.0673 68.3917 54.1173 68.3501 54.1465 68.2917C54.2048 68.1792 54.1465 68.0084 53.9715 67.4834L53.9548 67.4334L53.7715 66.8792C52.9416 64.3906 51.3499 62.2262 49.2216 60.6924C47.0933 59.1587 44.5365 58.3334 41.9132 58.3334H33.0923Z" fill="#193C76"/>
</svg>
