<svg width="100" height="92" viewBox="0 0 100 92" fill="none" xmlns="http://www.w3.org/2000/svg">
<path d="M55.5949 6.36328C51.7941 2.25977 46.4855 0 40.6261 0C34.7355 0 29.4093 2.24609 25.6261 6.32422C21.8019 10.4473 19.9386 16.0508 20.3761 22.1016C21.2433 34.0391 30.3273 43.75 40.6261 43.75C50.9249 43.75 59.9933 34.041 60.8742 22.1055C61.3175 16.1094 59.4425 10.5176 55.5949 6.36328ZM75.0011 87.5H6.25112C5.35124 87.5117 4.46008 87.3227 3.64245 86.9466C2.82483 86.5706 2.10132 86.017 1.52455 85.3262C0.255023 83.8086 -0.256695 81.7363 0.122211 79.6406C1.77065 70.4961 6.91518 62.8145 15.0011 57.4219C22.1847 52.6348 31.2843 50 40.6261 50C49.9679 50 59.0675 52.6367 66.2511 57.4219C74.3371 62.8125 79.4816 70.4941 81.13 79.6387C81.5089 81.7344 80.9972 83.8066 79.7277 85.3242C79.1511 86.0154 78.4277 86.5694 77.61 86.9457C76.7924 87.3221 75.9011 87.5115 75.0011 87.5Z" fill="#D2D9E4"/>
<path d="M74.9999 74.2918C73.066 74.2918 71.2114 73.5235 69.8439 72.1561C68.4765 70.7886 67.7082 68.934 67.7082 67.0001C67.7082 65.0662 68.4765 63.2116 69.8439 61.8441C71.2114 60.4766 73.066 59.7084 74.9999 59.7084C76.9338 59.7084 78.7884 60.4766 80.1559 61.8441C81.5233 63.2116 82.2916 65.0662 82.2916 67.0001C82.2916 68.934 81.5233 70.7886 80.1559 72.1561C78.7884 73.5235 76.9338 74.2918 74.9999 74.2918ZM90.4791 69.0209C90.5624 68.3543 90.6249 67.6876 90.6249 67.0001C90.6249 66.3126 90.5624 65.6251 90.4791 64.9168L94.8749 61.5209C95.2707 61.2084 95.3749 60.6459 95.1249 60.1876L90.9582 52.9793C90.7082 52.5209 90.1457 52.3334 89.6874 52.5209L84.4999 54.6043C83.4166 53.7918 82.2916 53.0834 80.9791 52.5626L80.2082 47.0418C80.1659 46.7964 80.0381 46.5739 79.8474 46.4137C79.6568 46.2536 79.4156 46.1661 79.1666 46.1668H70.8332C70.3124 46.1668 69.8749 46.5418 69.7916 47.0418L69.0207 52.5626C67.7082 53.0834 66.5832 53.7918 65.4999 54.6043L60.3124 52.5209C59.8541 52.3334 59.2916 52.5209 59.0416 52.9793L54.8749 60.1876C54.6041 60.6459 54.7291 61.2084 55.1249 61.5209L59.5207 64.9168C59.4374 65.6251 59.3749 66.3126 59.3749 67.0001C59.3749 67.6876 59.4374 68.3543 59.5207 69.0209L55.1249 72.4793C54.7291 72.7918 54.6041 73.3543 54.8749 73.8126L59.0416 81.0209C59.2916 81.4793 59.8541 81.6459 60.3124 81.4793L65.4999 79.3751C66.5832 80.2084 67.7082 80.9168 69.0207 81.4376L69.7916 86.9584C69.8749 87.4584 70.3124 87.8334 70.8332 87.8334H79.1666C79.6874 87.8334 80.1249 87.4584 80.2082 86.9584L80.9791 81.4376C82.2916 80.8959 83.4166 80.2084 84.4999 79.3751L89.6874 81.4793C90.1457 81.6459 90.7082 81.4793 90.9582 81.0209L95.1249 73.8126C95.3749 73.3543 95.2707 72.7918 94.8749 72.4793L90.4791 69.0209Z" fill="#0D326F" stroke="#D2D9E4" stroke-width="2"/>
</svg>
