<svg width="100" height="100" viewBox="0 0 100 100" fill="none" xmlns="http://www.w3.org/2000/svg">
<path opacity="0.5" d="M91.6673 41.6666H8.33398V79.1666C8.33398 82.4818 9.65095 85.6612 11.9951 88.0054C14.3394 90.3496 17.5188 91.6666 20.834 91.6666H79.1673C82.4825 91.6666 85.6619 90.3496 88.0061 88.0054C90.3504 85.6612 91.6673 82.4818 91.6673 79.1666V41.6666ZM29.1673 33.3333C28.0622 33.3333 27.0024 32.8943 26.221 32.1129C25.4396 31.3315 25.0007 30.2717 25.0007 29.1666V12.4999C25.0007 11.3948 25.4396 10.335 26.221 9.55364C27.0024 8.77224 28.0622 8.33325 29.1673 8.33325C30.2724 8.33325 31.3322 8.77224 32.1136 9.55364C32.895 10.335 33.334 11.3948 33.334 12.4999V29.1666C33.334 30.2717 32.895 31.3315 32.1136 32.1129C31.3322 32.8943 30.2724 33.3333 29.1673 33.3333ZM70.834 33.3333C69.7289 33.3333 68.6691 32.8943 67.8877 32.1129C67.1063 31.3315 66.6673 30.2717 66.6673 29.1666V12.4999C66.6673 11.3948 67.1063 10.335 67.8877 9.55364C68.6691 8.77224 69.7289 8.33325 70.834 8.33325C71.939 8.33325 72.9989 8.77224 73.7803 9.55364C74.5617 10.335 75.0006 11.3948 75.0006 12.4999V29.1666C75.0006 30.2717 74.5617 31.3315 73.7803 32.1129C72.9989 32.8943 71.939 33.3333 70.834 33.3333Z" fill="#D2D9E4"/>
<path d="M79.1673 16.6667H75.0006V29.1667C75.0006 30.2718 74.5617 31.3316 73.7803 32.113C72.9989 32.8944 71.939 33.3334 70.834 33.3334C69.7289 33.3334 68.6691 32.8944 67.8877 32.113C67.1063 31.3316 66.6673 30.2718 66.6673 29.1667V16.6667H33.334V29.1667C33.334 30.2718 32.895 31.3316 32.1136 32.113C31.3322 32.8944 30.2724 33.3334 29.1673 33.3334C28.0622 33.3334 27.0024 32.8944 26.221 32.113C25.4396 31.3316 25.0007 30.2718 25.0007 29.1667V16.6667H20.834C17.5188 16.6667 14.3394 17.9837 11.9951 20.3279C9.65095 22.6721 8.33398 25.8515 8.33398 29.1667V41.6667H91.6673V29.1667C91.6673 25.8515 90.3504 22.6721 88.0061 20.3279C85.6619 17.9837 82.4825 16.6667 79.1673 16.6667Z" fill="#0D326F"/>
</svg>
